<svg width="265" height="216" viewBox="0 0 265 216" fill="none" xmlns="http://www.w3.org/2000/svg">
<path d="M0.0993742 63.7462C0.0993742 50.8124 11.6331 45.2409 19.9851 39.172C32.5132 30.3174 44.8424 21.9602 57.3704 13.1055C63.1708 8.10448 69.6272 3.92031 76.5602 0.669176C80.5545 -0.222977 84.6962 -0.222977 88.6905 0.669176C96.1885 3.88524 103.16 8.21175 109.372 13.5035C123.292 23.4525 134.328 31.0138 148.447 40.9628C156.799 46.7333 166.643 51.6083 167.04 64.8406V181.642C166.792 190.114 163.41 198.193 157.551 204.313C151.691 210.433 143.771 214.161 135.323 214.773H129.258C120.615 214.166 112.527 210.291 106.637 203.935C100.746 197.579 97.4932 189.217 97.5397 180.548V64.7411C97.5397 55.588 106.787 42.7537 115.735 44.843C117.132 45.206 118.388 45.9773 119.345 47.0583C120.301 48.1393 120.914 49.4809 121.104 50.9119C121.999 59.2691 114.144 57.7768 112.553 64.1441C111.957 102.945 111.957 144.234 112.553 183.533C112.553 188.81 114.649 193.871 118.378 197.603C122.107 201.334 127.165 203.431 132.439 203.431C137.713 203.431 142.771 201.334 146.501 197.603C150.23 193.871 152.325 188.81 152.325 183.533C152.922 144.831 152.922 103.94 152.325 64.9401C151.53 59.6671 141.09 54.2946 136.019 50.7129C121.005 40.7639 107.98 31.4118 92.8665 20.8658C89.5854 18.5775 86.4036 15.5928 83.6196 15.4933C79.3442 15.4933 68.6059 24.1489 65.1259 26.5367L30.9223 50.8124C25.6526 54.5931 16.2068 59.2691 14.616 65.0396C14.0194 107.423 14.0194 152.293 14.616 194.377C14.6288 195.248 14.8146 196.108 15.1626 196.906C15.5106 197.705 16.014 198.426 16.6432 199.027C17.2724 199.629 18.015 200.1 18.8278 200.412C19.6405 200.724 20.5071 200.871 21.3771 200.844C42.4561 201.64 65.1259 200.844 86.8014 200.844C94.7557 200.844 94.6562 214.972 86.8014 215.171H18.8914C13.8567 214.736 9.15531 212.472 5.6748 208.806C2.19429 205.14 0.175667 200.326 0 195.273V63.7462H0.0993742Z" fill="black"/>
<path d="M184.1 0C193.559 2.89808 202.306 7.75342 209.773 14.2517C222.51 23.2213 235.048 32.2906 248.581 41.7585C256.343 47.2399 264.801 51.7247 265 63.1859V195.238C264.803 200.294 262.776 205.104 259.296 208.772C255.817 212.44 251.124 214.715 246.093 215.171H178.03C170.169 215.171 170.169 201.019 178.03 200.819C199.723 200.819 222.41 201.318 243.606 200.819C245.292 200.851 246.928 200.242 248.184 199.114C249.439 197.986 250.221 196.423 250.372 194.74C250.969 152.184 250.969 107.037 250.372 64.4815C249.377 59.1994 239.426 54.5152 234.351 50.6284C219.923 40.6622 206.688 30.696 191.563 20.2314C188.715 17.7619 185.294 16.0484 181.612 15.2483C176.537 15.2483 171.064 21.4274 166.686 25.2145C164.298 27.1081 161.611 28.902 159.521 30.4966C157.432 32.0912 155.74 34.8818 151.362 34.4831C149.68 34.4083 148.088 33.6989 146.907 32.4972C145.726 31.2956 145.042 29.6907 144.993 28.0051C144.297 20.4308 153.849 16.6436 158.526 13.0557C165.591 7.57432 169.671 2.0929 179.125 0.896952L184.1 0Z" fill="black"/>
</svg>
