<svg width="790" height="314" viewBox="0 0 790 314" fill="none" xmlns="http://www.w3.org/2000/svg">
<g clip-path="url(#clip0_4_52)">
<mask id="mask0_4_52" style="mask-type:luminance" maskUnits="userSpaceOnUse" x="0" y="0" width="790" height="314">
<path d="M790 0H0V314H790V0Z" fill="white"/>
</mask>
<g mask="url(#mask0_4_52)">
<path d="M176.334 95.2021C177.92 95.2092 179.49 94.9168 180.951 94.3426C182.412 93.7683 183.731 92.9242 184.83 91.8617C187.038 89.7133 188.257 86.8508 188.228 83.8818C188.179 82.7269 187.878 81.5935 187.343 80.55C186.807 79.5065 186.049 78.5749 185.114 77.8114C184.18 77.0478 183.088 76.4685 181.905 76.1084C180.722 75.7482 179.473 75.6148 178.231 75.7162C175.292 75.719 172.452 76.7077 170.235 78.5C169.166 79.3451 168.289 80.3792 167.653 81.542C167.019 82.7049 166.639 83.9733 166.537 85.2735C166.405 87.7432 167.143 90.1854 168.635 92.2327C169.505 93.2128 170.606 93.9915 171.856 94.5069C173.105 95.0223 174.467 95.2603 175.833 95.2021" fill="black"/>
<path d="M119.355 267.977C114.046 277.912 107.06 286.996 98.6626 294.886C91.7391 301.587 82.2702 305.516 72.2725 305.834C68.8534 305.922 65.4634 305.232 62.397 303.824C59.3308 302.417 56.6813 300.336 54.6793 297.762C50.2609 291.763 48.0198 284.611 48.2817 277.348C48.5779 268.581 50.7652 259.957 54.7143 251.988C58.6633 244.019 64.2938 236.867 71.273 230.953C91.7607 214.165 118.325 205.185 145.645 205.808C138.665 227.112 129.874 247.87 119.355 267.883M207.222 217.499C196.605 208.028 183.282 201.586 168.836 198.941C176.846 172.053 181.574 144.413 182.93 116.544C182.876 115.564 182.577 114.61 182.058 113.756C181.536 112.902 180.808 112.173 179.932 111.626C178.093 110.321 175.849 109.605 173.535 109.585C171.808 109.538 170.13 110.102 168.836 111.162C167.378 112.526 166.523 114.346 166.437 116.265C164.937 127.122 161.039 145.772 157.34 162.66C155.441 171.011 153.542 178.899 152.042 185.116C150.543 191.332 149.543 195.043 148.943 196.9C72.6724 199.404 37.9857 242.644 37.9857 275.957C37.612 285.765 41.174 295.355 47.9818 302.866C51.8037 306.645 56.4656 309.606 61.6442 311.545C66.8227 313.483 72.3936 314.352 77.9705 314.094C88.0318 314.029 97.8448 311.187 106.16 305.928C120.805 295.962 132.665 282.885 140.747 267.791C151.512 248.631 160.089 228.479 166.337 207.663C178.75 210.039 190.268 215.417 199.724 223.252C200.191 223.787 200.768 224.229 201.423 224.551C202.033 224.868 202.723 225.03 203.423 225.014C204.076 225.011 204.723 224.886 205.324 224.648C205.925 224.408 206.468 224.06 206.921 223.623C207.387 223.237 207.76 222.766 208.018 222.239C208.276 221.711 208.414 221.14 208.42 220.561C208.372 219.461 207.913 218.411 207.121 217.591" fill="black"/>
<path d="M737.021 198.291C735.921 199.834 734.441 201.112 732.702 202.016C730.963 202.92 729.016 203.424 727.024 203.488C724.864 203.513 722.78 202.746 721.226 201.353C720.397 200.611 719.747 199.715 719.316 198.724C718.886 197.733 718.685 196.669 718.727 195.6C719.429 190.252 722.116 185.3 726.325 181.589C730.626 177.312 735.42 173.485 740.619 170.175C740.619 174.165 741.618 178.249 741.618 182.145C741.902 187.905 740.109 193.586 736.52 198.291M540.395 110.42C545.292 98.9136 552.291 82.5826 561.088 66.3445C569.24 50.1797 579.844 35.1813 592.575 21.8055C596.237 17.9462 600.7 14.8141 605.699 12.5976C610.699 10.3811 616.128 9.12602 621.663 8.90774C626.945 8.56757 632.2 9.84465 636.624 12.5431C641.048 15.2416 644.395 19.2125 646.155 23.8469C625.737 45.8323 609.602 70.9518 598.473 98.0785C580.65 106.012 561.161 110.194 541.395 110.327M585.578 134.359C583.978 136.215 579.68 140.391 574.182 145.494C565.685 153.381 554.189 163.496 544.194 171.753C539.195 175.837 534.697 179.456 531.098 182.053C529.632 183.157 528.097 184.178 526.501 185.116L524.9 185.95H524.101H523.602C523.172 185.545 522.893 185.027 522.802 184.465C522.686 183.447 522.686 182.421 522.802 181.403C523.711 169.914 525.855 158.537 529.2 147.443C532.598 135.102 536.197 123.503 537.796 119.606C557.028 119.516 576.075 116.118 593.975 109.584C590.775 118.028 587.976 126.379 585.778 134.359M631.96 73.7676C636.359 65.1382 641.256 56.416 646.554 48.1578C643.64 57.5359 638.673 66.2546 631.96 73.7676ZM657.55 35.26C657.603 34.3946 657.603 33.5273 657.55 32.6619C660.653 28.8371 663.991 25.1812 667.547 21.7128L666.146 21.2488L666.647 21.8055C670.354 17.9018 674.883 14.7437 679.955 12.5256C685.025 10.3075 690.533 9.07625 696.136 8.90774C699.497 8.84886 702.835 9.42749 705.945 10.6082C709.056 11.7889 711.876 13.5468 714.228 15.7742C719.309 21.1105 721.992 28.0507 721.726 35.1672C721.097 44.4668 718.431 53.5498 713.895 61.8616C709.356 70.1734 703.043 77.5396 695.337 83.5105C673.045 101.135 644.646 110.691 615.367 110.42C617.265 105.873 619.565 100.584 622.064 94.8308C632.402 88.0107 640.963 79.1288 647.121 68.8369C653.279 58.5448 656.876 47.1036 657.65 35.3527M462.325 126.008C465.302 121.819 469.594 118.58 474.62 116.729C475.782 116.602 476.957 116.602 478.118 116.729C478.883 116.693 479.648 116.797 480.368 117.036C481.088 117.275 481.751 117.643 482.316 118.121C482.838 118.569 483.251 119.116 483.526 119.724C483.803 120.332 483.935 120.988 483.916 121.647C483.827 124.03 482.754 126.289 480.918 127.957C477.289 131.089 473 133.491 468.322 135.009C464.137 136.56 459.825 137.801 455.426 138.72C457.202 134.343 459.516 130.171 462.325 126.286M685.24 126.286C688.217 122.097 692.509 118.858 697.535 117.008C698.697 116.881 699.872 116.881 701.034 117.008C701.798 116.971 702.563 117.075 703.283 117.314C704.003 117.553 704.666 117.922 705.232 118.399C705.753 118.848 706.166 119.394 706.441 120.002C706.718 120.61 706.85 121.266 706.832 121.925C706.743 124.308 705.669 126.568 703.833 128.235C700.204 131.368 695.915 133.769 691.237 135.287C687.052 136.839 682.74 138.079 678.343 138.999C680.117 134.621 682.433 130.449 685.24 126.565M788.201 130.926C787.175 130.261 785.953 129.904 784.702 129.905C783.694 129.909 782.726 130.275 782.003 130.926C774.588 139.914 765.09 147.239 754.213 152.36C751.67 143.691 750.128 134.795 749.615 125.823C749.578 123.287 749.915 120.758 750.614 118.307C750.899 117.217 751.447 116.202 752.215 115.337C752.473 114.993 752.816 114.712 753.217 114.519C753.617 114.325 754.062 114.224 754.514 114.224C754.571 114.469 754.571 114.722 754.514 114.966C754.423 116.269 754.119 117.552 753.614 118.771L753.015 120.441C752.981 120.656 752.981 120.875 753.015 121.09C752.967 121.273 752.967 121.464 753.015 121.647C753.053 122.89 753.431 124.103 754.113 125.173C754.472 125.722 754.948 126.196 755.513 126.565C756.129 126.97 756.858 127.196 757.612 127.215C758.489 127.188 759.331 126.895 760.012 126.379C761.013 125.742 761.864 124.921 762.511 123.967C764.669 121.284 765.86 118.036 765.909 114.688C766.003 112.973 765.702 111.26 765.03 109.661C764.359 108.061 763.329 106.612 762.01 105.409C759.465 103.204 756.095 102.006 752.614 102.069C750.249 102.139 747.923 102.652 745.776 103.577C743.628 104.502 741.705 105.819 740.119 107.45C735.565 112.213 733.198 118.44 733.522 124.802C733.522 127.493 733.522 130.833 734.222 134.081C727.312 142.998 719.44 151.237 710.73 158.67C706.225 162.604 701.339 166.144 696.136 169.248C692.383 171.685 688.003 173.157 683.441 173.517C681.702 173.564 679.991 173.111 678.542 172.218C676.455 170.843 674.938 168.845 674.244 166.558C673.344 163.949 672.905 161.223 672.945 158.485C672.935 155.15 673.474 151.833 674.544 148.649C682.039 147.156 689.393 145.108 696.535 142.525C703.963 139.993 710.264 135.223 714.429 128.977C716.004 126.336 716.829 123.367 716.827 120.348C716.88 118.077 716.311 115.831 715.174 113.819C714.038 111.807 712.372 110.095 710.331 108.842C706.557 106.546 702.146 105.32 697.635 105.316C689.203 105.582 681.153 108.644 674.945 113.946C668.227 119.476 662.815 126.237 659.049 133.803C658.002 135.16 656.832 136.433 655.551 137.607C649.054 144.009 635.559 156.165 623.264 166.65C617.066 171.939 611.067 176.857 606.27 180.475C604.363 181.979 602.36 183.373 600.273 184.651L598.273 185.858H597.173H596.574C596.226 185.417 595.986 184.91 595.873 184.373C595.751 183.355 595.751 182.328 595.873 181.311C596.876 169.825 599.05 158.454 602.371 147.35C605.669 135.009 609.368 123.41 610.967 119.513C692.137 118.214 730.922 70.0561 730.922 35.1672C731.275 26.0073 727.964 17.0502 721.626 10.0212C718.105 6.58303 713.828 3.8911 709.083 2.1295C704.338 0.367894 699.241 -0.421819 694.137 -0.185644C692.339 -0.2759 690.536 -0.2759 688.739 -0.185644C675.146 1.77763 662.618 7.80479 653.052 16.9804C650.466 11.8794 646.331 7.59021 641.157 4.63942C634.952 1.17181 627.804 -0.567442 620.565 -0.371222C618.734 -0.463743 616.898 -0.463743 615.067 -0.371222C602.706 1.27892 591.209 6.46904 582.179 14.4751C550.59 39.7139 523.501 91.7689 512.206 133.524C505.331 142.494 497.457 150.768 488.714 158.206C484.237 162.141 479.347 165.654 474.119 168.691C470.368 171.127 465.987 172.6 461.425 172.96C459.686 173.008 457.974 172.554 456.526 171.661C454.439 170.286 452.921 168.288 452.228 166C451.328 163.393 450.89 160.666 450.929 157.928C450.92 154.593 451.459 151.276 452.529 148.092C460.023 146.599 467.378 144.551 474.52 141.968C481.948 139.436 488.249 134.667 492.413 128.421C493.987 125.779 494.813 122.81 494.812 119.791C494.864 117.52 494.295 115.274 493.159 113.262C492.022 111.25 490.356 109.538 488.315 108.285C484.548 105.979 480.132 104.753 475.62 104.759C466.962 105.139 458.752 108.438 452.529 114.038C445.775 119.756 440.364 126.705 436.635 134.452C432.936 139.184 424.34 150.876 415.942 161.361C411.644 166.65 407.445 171.661 404.046 175.372C402.615 176.887 401.08 178.312 399.449 179.641C398.971 180.103 398.433 180.509 397.848 180.847H396.949C396.621 180.918 396.278 180.918 395.949 180.847C395.744 180.742 395.566 180.596 395.428 180.42C395.289 180.242 395.194 180.041 395.149 179.827C395.021 179.058 395.021 178.274 395.149 177.507C395.793 171.446 397.031 165.451 398.848 159.598C400.999 152.36 402.272 144.922 402.647 137.421C402.937 132.911 401.444 128.457 398.449 124.895C397.197 123.587 395.657 122.545 393.93 121.84C392.206 121.135 390.336 120.785 388.453 120.812C384.139 120.885 379.965 122.253 376.557 124.709C367.553 131.699 360.32 140.442 355.365 150.319C358.469 140.273 361.005 130.083 362.963 119.791C362.963 118.492 363.462 116.915 363.462 115.337C363.548 112.384 362.678 109.475 360.963 106.986C359.9 105.625 358.477 104.543 356.83 103.844C355.184 103.145 353.37 102.853 351.566 102.996C348.961 103.107 346.438 103.877 344.27 105.223C339.142 108.414 334.645 112.4 330.975 117.008C321.257 129.051 312.664 141.84 305.283 155.237C306.784 150.319 308.383 145.494 310.282 140.391L313.681 131.112C313.8 130.623 313.8 130.116 313.681 129.627C313.675 128.825 313.395 128.046 312.881 127.4C311.934 126.44 310.726 125.735 309.383 125.359C307.82 124.948 306.207 124.729 304.584 124.709C302.502 124.708 300.437 125.054 298.487 125.73C297.622 125.942 296.816 126.326 296.126 126.854C295.436 127.383 294.877 128.044 294.489 128.792C293.805 130.215 293.204 131.671 292.689 133.153C288.991 137.329 279.194 149.67 269.498 160.99C264.699 166.65 259.502 172.032 255.803 176.022C254.14 177.727 252.334 179.31 250.405 180.755C249.796 181.257 249.125 181.693 248.405 182.053C248.011 182.137 247.601 182.137 247.206 182.053V181.311C247.141 180.724 247.141 180.134 247.206 179.548C247.445 175.797 248.184 172.088 249.405 168.505C251.304 161.732 254.304 153.66 256.903 147.071L260.301 138.442C261.201 136.215 261.9 134.545 262.1 133.895C262.488 133.109 262.693 132.255 262.7 131.39C262.69 130.412 262.421 129.452 261.916 128.594C261.409 127.736 260.684 127.007 259.802 126.472C258.058 125.301 255.955 124.682 253.803 124.709C251.872 124.721 249.977 125.201 248.306 126.101C246.44 127.16 245.002 128.757 244.207 130.648L236.31 152.453C232.29 158.098 227.917 163.519 223.216 168.691C220.949 171.479 218.512 174.143 215.918 176.671C214.942 177.565 213.907 178.403 212.82 179.177C212.232 179.578 211.544 179.833 210.82 179.919C210.676 179.402 210.676 178.859 210.82 178.341C211.025 175.055 211.561 171.793 212.419 168.599C215.219 156.072 221.116 137.607 222.416 132.504C222.502 132.231 222.502 131.941 222.416 131.668C222.465 131.361 222.465 131.048 222.416 130.741C222.422 129.836 222.106 128.955 221.516 128.235C220.59 127.19 219.383 126.39 218.018 125.915C216.471 125.429 214.851 125.178 213.219 125.173C211.224 125.165 209.248 125.544 207.422 126.286C206.587 126.599 205.831 127.064 205.197 127.654C204.561 128.244 204.06 128.946 203.723 129.72C198.446 143.403 195.283 157.711 194.326 172.218C194.116 176.257 194.901 180.288 196.626 184.002C197.339 185.52 198.478 186.835 199.924 187.805C201.464 188.749 203.278 189.234 205.122 189.198C207.776 189.091 210.356 188.356 212.62 187.063C219.248 183.278 225.02 178.33 229.613 172.495C229.613 173.888 229.613 175.28 229.613 176.671C229.416 180.441 230.313 184.191 232.212 187.528C233.241 189.025 234.648 190.267 236.31 191.147C238.402 192.059 240.697 192.504 243.008 192.446C246.676 192.135 250.157 190.809 253.003 188.641C265.167 179.238 275.893 168.344 284.891 156.258C283.197 163.11 282.259 170.106 282.094 177.136C281.916 180.049 282.288 182.97 283.192 185.764C283.664 186.951 284.497 187.981 285.592 188.735C286.937 189.516 288.504 189.905 290.091 189.848C291.683 189.846 293.249 189.461 294.633 188.728C296.018 187.997 297.174 186.943 297.987 185.672C302.584 178.341 306.084 170.175 310.681 163.402C313.082 159.041 320.678 146.7 328.276 135.566C332.073 129.998 335.772 124.616 338.872 120.719C340.104 119.101 341.439 117.552 342.87 116.08L344.17 114.873V115.616C344.17 117.193 342.769 120.534 341.371 124.895C335.338 141.309 331.543 158.361 330.075 175.651C329.897 179.048 330.406 182.448 331.574 185.672C332.121 186.946 333.018 188.065 334.173 188.92C335.362 189.802 336.85 190.263 338.371 190.219C339.454 190.252 340.528 190.041 341.503 189.605C342.477 189.169 343.324 188.519 343.97 187.713C344.254 187.372 344.488 186.998 344.669 186.6C347.068 182.61 354.666 168.785 362.162 155.886C366.061 149.484 370.06 143.36 373.459 138.813C374.876 136.886 376.482 135.085 378.256 133.431C378.855 132.9 379.489 132.405 380.155 131.947C380.583 131.859 381.028 131.859 381.456 131.947C381.533 131.913 381.619 131.896 381.705 131.896C381.791 131.896 381.877 131.913 381.955 131.947C382.416 132.416 382.727 132.994 382.854 133.617C382.983 134.665 382.983 135.723 382.854 136.772C382.492 142.355 381.691 147.906 380.456 153.381C379.001 159.732 378.165 166.192 377.957 172.681C377.728 177.05 378.728 181.398 380.855 185.301C381.891 187.035 383.411 188.476 385.253 189.477C387.356 190.573 389.74 191.118 392.152 191.053C395.728 190.933 399.195 189.87 402.147 187.992C412.533 179.932 421.65 170.562 429.237 160.154C429.456 166.114 431.54 171.885 435.234 176.765C437.434 179.481 440.313 181.66 443.621 183.114C446.93 184.569 450.57 185.255 454.228 185.116C464.857 184.446 474.979 180.644 483.116 174.259C491.547 168.134 499.253 161.198 506.109 153.567C505.036 159.704 504.468 165.908 504.408 172.124C503.99 178.488 505.223 184.854 508.007 190.682C509.143 192.769 510.828 194.556 512.906 195.879C515.066 197.119 517.563 197.761 520.103 197.734H521.103C522.716 197.546 524.277 197.073 525.7 196.342C535.18 190.999 544.056 184.783 552.191 177.784C562.186 169.99 572.183 161.082 579.879 153.567C578.741 159.699 578.105 165.903 577.981 172.124C577.589 178.496 578.857 184.862 581.678 190.682C582.785 192.788 584.476 194.582 586.577 195.879C588.726 197.143 591.23 197.788 593.775 197.734H594.775C596.324 197.541 597.819 197.068 599.173 196.342C608.332 191.296 616.907 185.388 624.763 178.712C634.159 171.105 644.155 162.382 652.152 154.866C652.152 155.979 652.152 157 652.152 158.021C651.925 164.779 653.988 171.431 658.051 177.042C660.254 179.849 663.164 182.112 666.528 183.631C669.89 185.152 673.605 185.885 677.343 185.764C689.449 184.814 700.859 180.108 709.73 172.403C719.458 164.395 728.299 155.505 736.121 145.865C737.219 151.711 738.319 157.093 739.119 160.525C732.049 164.961 725.6 170.198 719.927 176.114C713.833 181.703 710.016 189.082 709.131 196.992C709.035 199.327 709.498 201.651 710.482 203.8C711.467 205.949 712.952 207.871 714.829 209.425C718.544 212.242 723.228 213.725 728.024 213.601C733.317 213.501 738.494 212.143 743.061 209.658C747.628 207.173 751.433 203.643 754.113 199.404C757.345 193.495 758.859 186.908 758.511 180.29C758.383 173.81 757.647 167.352 756.313 160.99C769.066 154.817 780.272 146.217 789.201 135.751C789.332 134.983 789.332 134.2 789.201 133.431C789.205 132.834 789.042 132.246 788.725 131.725C788.41 131.204 787.953 130.769 787.401 130.462" fill="black"/>
<path d="M37.4857 92.14C42.845 81.502 49.8125 71.6286 58.1778 62.8184C60.5572 60.3081 63.4555 58.2671 66.701 56.8165C69.9464 55.3661 73.4728 54.5356 77.0705 54.3746C79.2597 54.3331 81.4349 54.7067 83.4632 55.4725C85.4913 56.2383 87.3299 57.3803 88.8662 58.8285C92.2076 62.2821 93.9649 66.8097 93.7642 71.4478C93.3487 77.5586 91.5915 83.5261 88.6003 88.9833C85.6092 94.4404 81.4475 99.2724 76.3708 103.182C61.7142 114.773 43.0444 121.066 23.7909 120.905C26.9896 113.296 31.5879 102.347 37.2857 92.14M70.2732 131.576C72.1977 128.863 74.9967 126.784 78.2702 125.637H80.4693C81.4206 125.585 82.3553 125.885 83.0684 126.472C83.3859 126.744 83.639 127.074 83.8111 127.441C83.9833 127.809 84.0707 128.206 84.068 128.606C84.002 130.157 83.2844 131.623 82.0687 132.689C79.7186 134.685 76.9669 136.23 73.9717 137.236C71.3624 138.167 68.6913 138.942 65.9748 139.555C67.0654 136.836 68.5087 134.249 70.2732 131.854M106.659 161.268C107.037 163.761 107.271 166.269 107.359 168.785C107.549 172.522 106.388 176.213 104.06 179.269C103.388 180.223 102.489 181.021 101.431 181.6C100.374 182.179 99.1872 182.524 97.9628 182.61C96.599 182.618 95.2808 182.155 94.2641 181.311C93.2738 180.296 92.7375 178.969 92.7647 177.599C93.1476 174.042 94.9266 170.74 97.7628 168.32C100.433 165.584 103.416 163.126 106.659 160.99M48.5814 151.711C48.5256 156.223 49.9176 160.647 52.5799 164.423C54.0428 166.303 55.9887 167.814 58.2406 168.819C60.4926 169.823 62.9795 170.291 65.475 170.175C73.5426 169.601 81.1585 166.493 87.0668 161.361C93.1203 156.527 98.645 151.15 103.561 145.308C104.26 148.834 104.96 152.175 105.46 154.587C100.831 157.539 96.6026 160.996 92.8647 164.886C89.2461 168.49 86.9686 173.076 86.3671 177.97C86.3124 179.557 86.6332 181.135 87.3067 182.594C87.9803 184.053 88.9903 185.357 90.2656 186.415C92.7766 188.3 95.9333 189.288 99.1623 189.198C102.669 189.139 106.103 188.257 109.144 186.635C112.185 185.013 114.735 182.702 116.556 179.919C118.731 175.997 119.764 171.614 119.554 167.207C119.495 162.964 118.993 158.74 118.055 154.587C126.468 150.495 133.859 144.804 139.747 137.885C139.875 137.366 139.875 136.827 139.747 136.308C139.763 135.863 139.651 135.422 139.423 135.031C139.194 134.639 138.857 134.311 138.447 134.081C137.737 133.643 136.9 133.417 136.048 133.431C135.685 133.409 135.321 133.455 134.977 133.566C134.634 133.678 134.318 133.853 134.049 134.081C129.222 139.864 123.078 144.585 116.056 147.907C114.425 142.33 113.453 136.605 113.157 130.833C113.119 129.176 113.321 127.522 113.757 125.915C113.944 125.238 114.285 124.605 114.756 124.059C114.91 123.849 115.12 123.679 115.365 123.565C115.61 123.451 115.882 123.398 116.156 123.41C116.089 124.238 115.887 125.051 115.556 125.822C115.556 125.822 115.556 126.658 115.556 127.029C115.509 127.18 115.509 127.341 115.556 127.493C115.541 128.355 115.821 129.2 116.356 129.905C116.575 130.329 116.922 130.683 117.355 130.926C117.843 131.069 118.367 131.069 118.855 130.926C119.473 130.927 120.073 130.73 120.554 130.369C121.241 129.93 121.821 129.361 122.253 128.699C123.809 126.877 124.654 124.621 124.653 122.296C124.682 121.158 124.457 120.026 123.993 118.973C123.528 117.919 122.834 116.965 121.954 116.172C120.235 114.644 117.935 113.81 115.556 113.853C112.326 113.993 109.28 115.29 107.059 117.472C104.049 120.673 102.475 124.824 102.661 129.07C102.527 131.141 102.527 133.217 102.661 135.287C98.1442 141.148 92.9852 146.559 87.2668 151.433C84.1979 154.061 80.8486 156.393 77.2705 158.392C74.8417 159.959 72.0184 160.917 69.0736 161.176C67.9401 161.21 66.8228 160.919 65.8748 160.34C64.5824 159.433 63.6366 158.164 63.1759 156.722C62.5967 155.011 62.3265 153.224 62.3762 151.433C62.3826 149.302 62.6849 147.181 63.2759 145.123C68.2225 144.184 73.0721 142.849 77.7704 141.133C82.767 139.402 86.9681 136.125 89.6659 131.854C90.732 130.065 91.2829 128.052 91.2653 126.008C91.2842 124.473 90.8924 122.957 90.1246 121.596C89.357 120.236 88.2377 119.074 86.8669 118.214C84.3564 116.653 81.3911 115.844 78.3702 115.894C72.7232 116.046 67.326 118.089 63.1759 121.647C58.9325 125.342 55.533 129.791 53.1796 134.73L50.7806 137.236C46.5823 141.411 37.6856 149.391 29.4887 156.35C25.3902 159.877 21.4917 163.125 18.3929 165.629C17.1157 166.625 15.781 167.554 14.3945 168.413L13.0949 169.156H12.4952C12.4231 168.881 12.4231 168.594 12.4952 168.32C12.4267 167.641 12.4267 166.958 12.4952 166.279C13.144 158.743 14.5836 151.285 16.7935 144.009C17.893 139.741 19.0927 135.658 20.1921 132.318C21.2918 128.977 21.8915 127.029 22.3914 125.73C75.9711 124.802 101.461 92.9751 101.461 70.0561C101.715 63.9656 99.504 58.0075 95.2638 53.3538C92.7127 51.2584 89.7031 49.7006 86.4417 48.7877C83.1804 47.8747 79.7446 47.6281 76.3708 48.0648C75.1733 47.9749 73.9698 47.9749 72.7723 48.0648C62.2534 49.7546 52.7041 54.8103 45.7826 62.3545C32.0062 76.7135 21.1056 93.2425 13.5947 111.162C6.10944 126.928 1.67664 143.795 0.499742 160.99C0.28918 165.167 1.14548 169.333 2.9988 173.146C3.70641 174.568 4.85479 175.764 6.29748 176.579C7.72548 177.439 9.39382 177.889 11.0957 177.878H11.8954C12.9154 177.738 13.8984 177.423 14.7942 176.95C20.8777 173.607 26.5725 169.688 31.7878 165.258C37.8854 160.34 44.1832 154.866 49.3811 149.948C49.3811 150.505 49.3811 150.969 49.3811 151.433" fill="black"/>
<path d="M295.622 235.722V302.899H284.75V235.722H295.622ZM378.591 236.769V302.899H367.623V253.325L348.453 302.899H338.916L319.651 253.325V302.899H308.779V236.769H321.94L343.876 289.578L365.43 236.769H378.591ZM461.484 236.769V302.899H450.516V253.325L431.346 302.899H421.809L402.544 253.325V302.899H391.671V236.769H404.833L426.768 289.578L448.322 236.769H461.484ZM505.749 234.866C511.98 234.866 517.607 236.325 522.63 239.243C527.717 242.161 531.69 246.252 534.552 251.517C537.476 256.719 538.939 262.618 538.939 269.215C538.939 275.813 537.476 281.744 534.552 287.009C531.69 292.21 527.717 296.302 522.63 299.283C517.607 302.201 511.98 303.66 505.749 303.66C499.455 303.66 493.764 302.201 488.678 299.283C483.655 296.302 479.681 292.21 476.756 287.009C473.831 281.744 472.369 275.813 472.369 269.215C472.369 262.618 473.831 256.719 476.756 251.517C479.681 246.252 483.655 242.161 488.678 239.243C493.764 236.325 499.455 234.866 505.749 234.866ZM505.749 244.952C501.426 244.952 497.579 245.935 494.209 247.901C490.839 249.868 488.201 252.691 486.293 256.37C484.449 260.049 483.527 264.331 483.527 269.215C483.527 274.1 484.449 278.382 486.293 282.061C488.201 285.74 490.839 288.563 494.209 290.529C497.579 292.496 501.426 293.479 505.749 293.479C510.009 293.479 513.792 292.496 517.099 290.529C520.468 288.563 523.075 285.74 524.919 282.061C526.826 278.382 527.78 274.1 527.78 269.215C527.78 264.331 526.826 260.049 524.919 256.37C523.075 252.691 520.468 249.868 517.099 247.901C513.792 245.935 510.009 244.952 505.749 244.952Z" fill="black"/>
</g>
</g>
<defs>
<clipPath id="clip0_4_52">
<rect width="790" height="314" fill="white"/>
</clipPath>
</defs>
</svg>
