<svg height="512" viewBox="0 0 50 68" width="512" xmlns="http://www.w3.org/2000/svg"><g id="Page-1" fill="none" fill-rule="evenodd"><g id="things_export" fill="rgb(0,0,0)" fill-rule="nonzero" transform="translate(-425 -176)"><path id="basement,-underground,-house,-cellar,-stairs,-residence" d="m429 222h-2c-1.104569 0-2-.895431-2-2v-28c0-.697987.363887-1.345481.960106-1.708397l23-14c.638749-.388804 1.441039-.388804 2.079788 0l23 14c.596219.362916.960106 1.01041.960106 1.708397v28c0 1.104569-.895431 2-2 2h-2v20c0 1.104569-.895431 2-2 2h-38c-1.104569 0-2-.895431-2-2zm15 18v-4h-5c-1.104569 0-2-.895431-2-2v-4h-4v10zm4 0h19v-18h-34v4h6c1.104569 0 2 .895431 2 2v4h5c1.104569 0 2 .895431 2 2zm5-22v-18c0-1.104569.895431-2 2-2h10c1.104569 0 2 .895431 2 2v18h4v-24.876015l-21-12.782609-21 12.782609v24.876015zm4-16v16h6v-16zm-24-2c0-1.104569.895431-2 2-2h12c1.104569 0 2 .895431 2 2v12c0 1.104569-.895431 2-2 2h-12c-1.104569 0-2-.895431-2-2zm4 2v8h8v-8z"/></g></g></svg>