<?xml version="1.0" encoding="iso-8859-1"?>
<!-- Generator: Adobe Illustrator 19.0.0, SVG Export Plug-In . SVG Version: 6.00 Build 0)  -->
<svg version="1.1" id="Capa_1" xmlns="http://www.w3.org/2000/svg" xmlns:xlink="http://www.w3.org/1999/xlink" x="0px" y="0px"
	 viewBox="0 0 409.6 409.6" style="enable-background:new 0 0 409.6 409.6;" xml:space="preserve">
<g>
	<g>
		<path d="M404.475,373.576h-22.077v-237.64h9.359c2.831,0,5.12-2.289,5.12-5.12V105.16c0-2.831-2.289-5.12-5.12-5.12H220.155
			V35.896h8.043c2.831,0,5.12-2.289,5.12-5.12V5.12c0-2.831-2.289-5.12-5.12-5.12H19.64c-2.831,0-5.12,2.289-5.12,5.12v25.656
			c0,2.831,2.289,5.12,5.12,5.12h7.557v337.679H5.12c-2.831,0-5.12,2.289-5.12,5.12v25.784c0,2.831,2.289,5.12,5.12,5.12h399.36
			c2.831,0,5.12-2.289,5.12-5.12v-25.784C409.595,375.864,407.306,373.576,404.475,373.576z M386.637,110.28v15.416H220.155V110.28
			H386.637z M372.157,135.936v237.64h-0.005H220.155v-237.64H372.157z M24.76,25.656V10.24h198.318v15.416H24.76z M209.915,35.896
			v337.679H37.432V35.896H209.915z M399.355,399.36H10.235v-15.544h389.12V399.36z"/>
	</g>
</g>
<g>
	<g>
		<path d="M347.674,269.967h-32.527c-2.831,0-5.12,2.289-5.12,5.12v61.553c0,2.831,2.289,5.12,5.12,5.12h32.527
			c2.831,0,5.12-2.289,5.12-5.12v-61.553C352.794,272.256,350.505,269.967,347.674,269.967z M342.554,331.52h-22.287v-51.313h22.287
			V331.52z"/>
	</g>
</g>
<g>
	<g>
		<path d="M278.605,269.967h-32.527c-2.831,0-5.12,2.289-5.12,5.12v61.553c0,2.831,2.294,5.12,5.12,5.12h32.527
			c2.831,0,5.12-2.289,5.12-5.12v-61.553C283.725,272.256,281.436,269.967,278.605,269.967z M273.485,331.52h-22.287v-51.313h22.287
			V331.52z"/>
	</g>
</g>
<g>
	<g>
		<path d="M347.674,168.827h-32.527c-2.831,0-5.12,2.289-5.12,5.12v61.548c0,2.831,2.289,5.12,5.12,5.12h32.527
			c2.831,0,5.12-2.289,5.12-5.12v-61.548C352.794,171.115,350.505,168.827,347.674,168.827z M342.554,230.374h-22.287v-51.308
			h22.287V230.374z"/>
	</g>
</g>
<g>
	<g>
		<path d="M278.605,168.827h-32.527c-2.831,0-5.12,2.289-5.12,5.12v61.548c0,2.831,2.294,5.12,5.12,5.12h32.527
			c2.831,0,5.12-2.289,5.12-5.12v-61.548C283.725,171.115,281.436,168.827,278.605,168.827z M273.485,230.374h-22.287v-51.308
			h22.287V230.374z"/>
	</g>
</g>
<g>
	<g>
		<path d="M177.592,168.555h-32.527c-2.831,0-5.12,2.289-5.12,5.12v61.553c0,2.831,2.289,5.12,5.12,5.12h32.527
			c2.831,0,5.12-2.289,5.12-5.12v-61.553C182.712,170.844,180.424,168.555,177.592,168.555z M172.472,230.108h-22.287v-51.313
			h22.287V230.108z"/>
	</g>
</g>
<g>
	<g>
		<path d="M177.592,67.415h-32.527c-2.831,0-5.12,2.289-5.12,5.12v61.547c0,2.831,2.289,5.12,5.12,5.12h32.527
			c2.831,0,5.12-2.289,5.12-5.12V72.535C182.712,69.704,180.424,67.415,177.592,67.415z M172.472,128.963h-22.287V77.655h22.287
			V128.963z"/>
	</g>
</g>
<g>
	<g>
		<path d="M102.769,168.555H70.241c-2.831,0-5.12,2.289-5.12,5.12v61.553c0,2.831,2.289,5.12,5.12,5.12h32.527
			c2.831,0,5.12-2.289,5.12-5.12v-61.553C107.889,170.844,105.6,168.555,102.769,168.555z M97.649,230.108H75.361v-51.313h22.287
			V230.108z"/>
	</g>
</g>
<g>
	<g>
		<path d="M102.769,67.415H70.241c-2.831,0-5.12,2.289-5.12,5.12v61.547c0,2.831,2.289,5.12,5.12,5.12h32.527
			c2.831,0,5.12-2.289,5.12-5.12V72.535C107.889,69.704,105.6,67.415,102.769,67.415z M97.649,128.963H75.361V77.655h22.287V128.963
			z"/>
	</g>
</g>
<g>
	<g>
		<path d="M177.592,269.967h-32.527c-2.831,0-5.12,2.289-5.12,5.12v61.553c0,2.831,2.289,5.12,5.12,5.12h32.527
			c2.831,0,5.12-2.289,5.12-5.12v-61.553C182.712,272.256,180.424,269.967,177.592,269.967z M172.472,331.52h-22.287v-51.313h22.287
			V331.52z"/>
	</g>
</g>
<g>
	<g>
		<path d="M102.769,269.967H70.241c-2.831,0-5.12,2.289-5.12,5.12v61.553c0,2.831,2.289,5.12,5.12,5.12h32.527
			c2.831,0,5.12-2.289,5.12-5.12v-61.553C107.889,272.256,105.6,269.967,102.769,269.967z M97.649,331.52H75.361v-51.313h22.287
			V331.52z"/>
	</g>
</g>
<g>
</g>
<g>
</g>
<g>
</g>
<g>
</g>
<g>
</g>
<g>
</g>
<g>
</g>
<g>
</g>
<g>
</g>
<g>
</g>
<g>
</g>
<g>
</g>
<g>
</g>
<g>
</g>
<g>
</g>
</svg>
