<?xml version="1.0" encoding="iso-8859-1"?>
<!-- Generator: Adobe Illustrator 19.0.0, SVG Export Plug-In . SVG Version: 6.00 Build 0)  -->
<svg version="1.1" id="Capa_1" xmlns="http://www.w3.org/2000/svg" xmlns:xlink="http://www.w3.org/1999/xlink" x="0px" y="0px"
	 viewBox="0 0 409.6 409.6" style="enable-background:new 0 0 409.6 409.6;" xml:space="preserve">
<g>
	<g>
		<path d="M404.48,373.576h-9.948V352c0-2.831-2.294-5.12-5.12-5.12h-5.652V66.616h7.552c2.826,0,5.12-2.289,5.12-5.12V35.84
			c0-2.831-2.294-5.12-5.12-5.12h-77.553V5.12c0-2.831-2.294-5.12-5.12-5.12h-34.985c-2.826,0-5.12,2.289-5.12,5.12v25.6H256.43
			V5.12c0-2.831-2.294-5.12-5.12-5.12h-34.985c-2.826,0-5.12,2.289-5.12,5.12v25.6h-77.558c-2.826,0-5.12,2.289-5.12,5.12v25.656
			c0,2.831,2.294,5.12,5.12,5.12h7.552v57.001c-7.982-6.308-18.273-10.122-29.512-10.122c-25.226,0-45.752,19.2-45.752,42.793
			c0,5.125,0.973,10.133,2.898,14.925c-1.592,1.981-3,4.076-4.25,6.241c-4.772-2.099-9.999-3.261-15.304-3.261
			c-19.927,0-36.137,15.201-36.137,33.879c0,3.835,0.686,7.583,2.043,11.192c-5.192,6.707-8.018,14.797-8.018,23.112
			c0,4.721,0.896,9.329,2.667,13.747c-5.955,7.716-9.195,17.044-9.195,26.609c0,23.496,19.159,42.885,43.643,45.235l0.133,45.609
			H5.12c-2.826,0-5.12,2.289-5.12,5.12v25.784c0,2.831,2.294,5.12,5.12,5.12h399.36c2.826,0,5.12-2.289,5.12-5.12v-25.784
			C409.6,375.864,407.306,373.576,404.48,373.576z M384.292,357.12v16.456H140.667V357.12H384.292z M135.547,346.88
			c-2.826,0-5.12,2.289-5.12,5.12v21.576H117.14l-0.195-61.752c8.714-0.686,16.927-3.016,24.253-6.723v41.779H135.547z
			 M154.547,171.218c1.925-4.797,2.898-9.8,2.898-14.925c0-0.732-0.015-1.459-0.056-2.171c-0.379-7.086-2.586-13.691-6.175-19.436
			c0.087-0.379,0.23-0.737,0.23-1.142V66.616h222.075V346.88h-51.768v-98.022c0-2.831-2.294-5.12-5.12-5.12H209.275
			c-2.826,0-5.12,2.289-5.12,5.12v98.022h-52.716v-48.031c0-0.077-0.041-0.138-0.041-0.215
			c13.691-10.644,22.426-26.66,22.426-44.554c0-11.587-3.656-22.774-10.573-32.358c-0.553-0.758-1.121-1.51-1.71-2.243
			c2.478-5.852,3.732-11.981,3.732-18.258C165.274,190.392,161.485,179.861,154.547,171.218z M311.511,253.978v92.902h-43.438
			v-92.902H311.511z M257.828,346.88h-43.433v-92.902h43.433V346.88z M278.769,10.24h24.745v20.48h-24.745V10.24z M221.44,10.24
			h24.745v20.48H221.44V10.24z M138.767,56.376V40.96h247.424v15.416H138.767z M72.422,217.969
			c-2.703-5.335-4.076-10.972-4.076-16.753c0-9.364,3.64-18.478,10.25-25.672c1.439-1.562,1.761-3.85,0.814-5.755
			c-2.15-4.306-3.241-8.847-3.241-13.507c0.005-17.94,15.939-32.548,35.517-32.548c18.964,0,34.545,13.583,35.466,30.945
			c0.031,0.532,0.041,1.07,0.041,1.608c0,4.659-1.091,9.201-3.241,13.507c-0.952,1.905-0.63,4.193,0.814,5.755
			c6.615,7.188,10.255,16.307,10.255,25.672c0,5.786-1.372,11.418-4.076,16.753c-0.957,1.884-0.655,4.163,0.753,5.734
			c1.157,1.285,2.237,2.627,3.241,4.009c5.647,7.823,8.637,16.947,8.637,26.363c0,24.704-20.5,45.082-46.669,47.503l-0.082-24.975
			l18.232-18.232c2.002-2.002,2.002-5.238,0-7.24c-2.002-2.002-5.238-2.002-7.24,0l-11.039,11.039l-0.067-21.069
			c-0.01-2.826-2.299-5.105-5.12-5.105c-0.005,0-0.01,0-0.015,0c-2.826,0.01-5.115,2.309-5.105,5.135l0.067,20.301l-10.301-10.301
			c-2.002-2.002-5.238-2.002-7.24,0c-2.002,2.002-2.002,5.238,0,7.24l17.587,17.587l0.082,25.631
			c-26.266-2.33-46.879-22.743-46.879-47.514c0-11.054,4.219-21.847,11.873-30.377C73.078,222.131,73.375,219.853,72.422,217.969z
			 M106.901,373.576H54.656l-0.133-45.67c14.085-1.423,26.901-8.504,34.98-19.599c0.026-0.031,0.026-0.072,0.046-0.108
			c5.402,1.93,11.151,3.185,17.157,3.635L106.901,373.576z M44.186,295.276l0.067,22.359c-18.801-2.278-33.372-17.044-33.372-34.903
			c0-8.146,3.108-16.097,8.75-22.38c1.413-1.572,1.71-3.85,0.758-5.734c-1.976-3.901-2.98-8.018-2.98-12.242
			c0-6.845,2.668-13.512,7.506-18.775c1.439-1.562,1.761-3.855,0.814-5.755c-1.556-3.113-2.345-6.4-2.345-9.769
			c0-13.036,11.617-23.639,25.897-23.639c3.881,0,7.69,0.84,11.156,2.36c-1.505,4.649-2.325,9.503-2.325,14.428
			c0,6.282,1.254,12.411,3.727,18.258c-7.946,9.964-12.283,22.129-12.283,34.606c0,21.14,12.221,39.619,30.377,49.751
			c-6.2,7.573-15.329,12.513-25.441,13.783l-0.067-22.38c-0.005-2.826-2.299-5.105-5.12-5.105c-0.005,0-0.01,0-0.015,0
			C46.464,290.15,44.175,292.444,44.186,295.276z M399.36,399.36H10.24v-15.544h389.12V399.36z"/>
	</g>
</g>
<g>
	<g>
		<path d="M315.679,169.354h-32.527c-2.826,0-5.12,2.289-5.12,5.12v45.117c0,2.826,2.294,5.12,5.12,5.12h32.527
			c2.826,0,5.12-2.289,5.12-5.12v-45.117C320.799,171.643,318.505,169.354,315.679,169.354z M310.559,214.472h-22.287v-34.877
			h22.287V214.472z"/>
	</g>
</g>
<g>
	<g>
		<path d="M315.679,95.222h-32.527c-2.826,0-5.12,2.289-5.12,5.12v45.117c0,2.831,2.294,5.12,5.12,5.12h32.527
			c2.826,0,5.12-2.289,5.12-5.12v-45.117C320.799,97.51,318.505,95.222,315.679,95.222z M310.559,140.344h-22.287v-34.877h22.287
			V140.344z"/>
	</g>
</g>
<g>
	<g>
		<path d="M240.855,169.354h-32.527c-2.826,0-5.12,2.289-5.12,5.12v45.117c0,2.826,2.294,5.12,5.12,5.12h32.527
			c2.826,0,5.12-2.289,5.12-5.12v-45.117C245.975,171.643,243.681,169.354,240.855,169.354z M235.735,214.472h-22.287v-34.877
			h22.287V214.472z"/>
	</g>
</g>
<g>
	<g>
		<path d="M240.855,95.222h-32.527c-2.826,0-5.12,2.289-5.12,5.12v45.117c0,2.831,2.294,5.12,5.12,5.12h32.527
			c2.826,0,5.12-2.289,5.12-5.12v-45.117C245.975,97.51,243.681,95.222,240.855,95.222z M235.735,140.344h-22.287v-34.877h22.287
			V140.344z"/>
	</g>
</g>
<g>
</g>
<g>
</g>
<g>
</g>
<g>
</g>
<g>
</g>
<g>
</g>
<g>
</g>
<g>
</g>
<g>
</g>
<g>
</g>
<g>
</g>
<g>
</g>
<g>
</g>
<g>
</g>
<g>
</g>
</svg>
