<svg enable-background="new 0 0 512 512" viewBox="0 0 512 512" xmlns="http://www.w3.org/2000/svg"><g id="_x32_2_Car_Paking"><g><path d="m10.772 379.047v50.547c0 7.921 3.679 14.926 9.33 19.644v33.593c0 12.771 10.391 23.162 23.162 23.162h31.493c12.771 0 23.162-10.391 23.162-23.162v-27.538h173.091v27.538c0 12.771 10.391 23.162 23.162 23.162h31.493c12.775 0 23.166-10.391 23.166-23.162v-30.296c8.466-4.208 14.35-12.861 14.35-22.94v-50.547c0-1.728-.572-3.406-1.625-4.772-32.926-42.166-27.419-36.369-30.349-38.575l-21.75-59.838c-7.87-21.549-28.541-36.025-51.44-36.025h-138.335c-22.071 0-41.842 13.149-50.36 33.488-29.058 69.193-27.767 65.378-28.066 67.199l-28.608 33.445c-1.213 1.415-1.876 3.216-1.876 5.077zm71.523 103.784c0 4.158-3.38 7.538-7.538 7.538h-31.493c-4.158 0-7.538-3.38-7.538-7.538v-27.541h.71c.013 0 .025.004.038.004h45.821zm243.371 7.537h-31.493c-4.158 0-7.538-3.38-7.538-7.538v-27.538h46.572v27.538c0 4.159-3.383 7.538-7.541 7.538zm-241.94-210.992c6.088-14.526 20.202-23.914 35.956-23.914h138.336c16.365 0 31.138 10.353 36.757 25.748l19.18 52.76h-27.495c-.931-22.02-18.995-39.683-41.24-39.683s-40.309 17.663-41.24 39.683h-143.256zm187.109 54.594h-51.231c.91-13.401 11.988-24.059 25.615-24.059 13.629.001 24.706 10.658 25.616 24.059zm-244.439 47.961 27.66-32.336h268.726l24.776 32.115v47.885c0 5.547-4.511 10.06-10.055 10.07-89.573 0 14.033.005-301.047 0-5.548-.01-10.059-4.523-10.059-10.07v-47.664z"/><path d="m76.138 420.973h29.342c9.952 0 18.047-8.095 18.047-18.047v-13.496c0-9.952-8.095-18.047-18.047-18.047h-29.342c-9.952 0-18.047 8.095-18.047 18.047v13.496c.001 9.953 8.095 18.047 18.047 18.047zm-2.422-31.543c0-1.381 1.041-2.422 2.422-2.422h29.342c1.381 0 2.422 1.041 2.422 2.422v13.496c0 1.381-1.041 2.422-2.422 2.422h-29.342c-1.381 0-2.422-1.041-2.422-2.422z"/><path d="m268.504 420.973h29.342c9.952 0 18.047-8.095 18.047-18.047v-13.496c0-9.952-8.095-18.047-18.047-18.047h-29.342c-9.952 0-18.047 8.095-18.047 18.047v13.496c0 9.953 8.095 18.047 18.047 18.047zm-2.422-31.543c0-1.381 1.041-2.422 2.422-2.422h29.342c1.358 0 2.422 1.064 2.422 2.422v13.496c0 1.381-1.041 2.422-2.422 2.422h-29.342c-1.381 0-2.422-1.041-2.422-2.422z"/><path d="m167.944 403.979h38.096c4.314 0 7.812-3.498 7.812-7.812s-3.498-7.812-7.812-7.812h-38.096c-4.314 0-7.812 3.498-7.812 7.812s3.498 7.812 7.812 7.812z"/><path d="m408.751 117.469c12.035 0 21.827-9.792 21.827-21.827v-22.338c0-12.035-9.792-21.827-21.827-21.827h-36.353c-4.314 0-7.812 3.498-7.812 7.812v100.732c0 4.314 3.498 7.812 7.812 7.812s7.812-3.498 7.812-7.812v-42.552zm6.203-44.165v22.338c0 3.422-2.781 6.203-6.203 6.203h-28.541v-34.743h28.541c3.422 0 6.203 2.78 6.203 6.202z"/><path d="m397.582 505.993c4.314 0 7.812-3.498 7.812-7.812v-284.878h62.712c18.264 0 33.122-14.862 33.122-33.126v-141.044c0-18.264-14.858-33.126-33.122-33.126h-141.048c-18.264 0-33.122 14.862-33.122 33.126v141.044c0 18.264 14.858 33.126 33.122 33.126h62.712v284.877c0 4.315 3.498 7.813 7.812 7.813zm-88.021-325.816v-141.044c0-9.651 7.85-17.501 17.497-17.501h141.048c9.647 0 17.497 7.85 17.497 17.501v141.044c0 9.651-7.85 17.501-17.497 17.501h-141.048c-9.647.001-17.497-7.85-17.497-17.501z"/></g></g><g id="Layer_1"/></svg>