<?xml version="1.0"?>
<svg xmlns="http://www.w3.org/2000/svg" viewBox="0 0 64 64" width="512" height="512"><g id="Layer_11" data-name="Layer 11"><path d="M37,62H26V39a1,1,0,0,1,1-1h6a1,1,0,0,0,0-2H27a3,3,0,0,0-3,3V62H17.444A3.959,3.959,0,0,0,18,60a4,4,0,0,0-4-4,3.834,3.834,0,0,0-.928.114,4.979,4.979,0,0,0-8.144,0A3.84,3.84,0,0,0,4,56a4,4,0,0,0,0,8H37a1,1,0,0,0,0-2ZM14,62H4a2,2,0,1,1,.91-3.767,1,1,0,0,0,1.368-.474,2.986,2.986,0,0,1,5.444,0,1,1,0,0,0,1.368.474A1.995,1.995,0,1,1,14,62Z"/><path d="M21,50a1,1,0,0,0,1-1V37a1,1,0,0,0-1-1H9a1,1,0,0,0-1,1V49a1,1,0,0,0,1,1ZM16,38h4v4H16Zm0,6h4v4H16Zm-6-6h4v4H10Zm0,6h4v4H10Z"/><circle cx="36" cy="51" r="1"/><path d="M62.444,45.874l.691-.69a2.953,2.953,0,0,0,0-4.176l-.691-.691a1,1,0,0,0-1.414,0L59.649,41.7A.952.952,0,1,1,58.3,40.351l1.381-1.382a1,1,0,0,0,0-1.414l-.691-.691a2.957,2.957,0,0,0-4.176,0l-.69.69a4.9,4.9,0,0,0-1.094,5.237l-2.954,2.955-1.042-1.042c.353-.484.707-.965,1.021-1.484a3.081,3.081,0,0,0-.449-3.777l-2.177-2.177a3.081,3.081,0,0,0-3.777-.449c-.519.314-1,.668-1.484,1.021l-.942-.942a3.138,3.138,0,0,0-4.331,0,3.066,3.066,0,0,0,0,4.331l.942.942c-.353.483-.707.965-1.021,1.484a3.081,3.081,0,0,0,.449,3.777l2.177,2.177a3.064,3.064,0,0,0,2.169.9,3.116,3.116,0,0,0,1.608-.449c.519-.314,1-.668,1.484-1.021l1.042,1.041-2.955,2.955a4.894,4.894,0,0,0-5.236,1.094l-.691.69a2.953,2.953,0,0,0,0,4.176l.691.691a1,1,0,0,0,1.414,0L40.351,58.3A.952.952,0,1,1,41.7,59.649l-1.381,1.382a1,1,0,0,0,0,1.414l.691.691a2.956,2.956,0,0,0,4.176,0l.69-.69a4.9,4.9,0,0,0,1.094-5.237l2.955-2.955,8.849,8.85A3.062,3.062,0,0,0,63.1,58.772l-8.85-8.85,2.955-2.954A4.89,4.89,0,0,0,62.444,45.874ZM38.312,38.311a1.087,1.087,0,0,1,1.5,0l.8.8a19.735,19.735,0,0,0-1.5,1.5l-.8-.8A1.063,1.063,0,0,1,38.312,38.311Zm3.875,10.033a1.083,1.083,0,0,1-1.329-.15l-2.177-2.177a1.083,1.083,0,0,1-.15-1.329,17.932,17.932,0,0,1,6.156-6.157,1.115,1.115,0,0,1,.575-.161,1.065,1.065,0,0,1,.755.311l2.177,2.177a1.084,1.084,0,0,1,.15,1.33A17.941,17.941,0,0,1,42.187,48.344ZM45.053,56.3a1,1,0,0,0-.156,1.214,2.9,2.9,0,0,1-.437,3.522l-.69.69a.955.955,0,0,1-1.332.016l.674-.673a2.953,2.953,0,1,0-4.175-4.176l-.674.673a.953.953,0,0,1,.016-1.331l.691-.69a2.9,2.9,0,0,1,3.521-.438,1,1,0,0,0,1.214-.155l3.456-3.456,1.348,1.348Zm16.635,3.891a1.061,1.061,0,0,1,0,1.5,1.087,1.087,0,0,1-1.5,0L46.262,47.764a19.906,19.906,0,0,0,1.5-1.5ZM56.3,45.053l-3.456,3.455-1.347-1.347,3.455-3.456a1,1,0,0,0,.156-1.214,2.9,2.9,0,0,1,.437-3.522l.69-.69a.956.956,0,0,1,1.332-.016l-.674.673a2.95,2.95,0,0,0,0,4.176,3.022,3.022,0,0,0,4.175,0l.674-.673a.953.953,0,0,1-.016,1.331l-.691.69a2.9,2.9,0,0,1-3.521.438A1,1,0,0,0,56.3,45.053Z"/><path d="M61,20H59.331L32.6.2A1,1,0,0,0,31.4.2L4.669,20H3a3,3,0,0,0-3,3v2a3,3,0,0,0,3,3H4V53a1,1,0,0,0,2,0V28H47a1,1,0,0,0,0-2H3a1,1,0,0,1-1-1V23a1,1,0,0,1,1-1H61a1,1,0,0,1,1,1v2a1,1,0,0,1-1,1H51a1,1,0,0,0,0,2h7v5a1,1,0,0,0,2,0V28h1a3,3,0,0,0,3-3V23A3,3,0,0,0,61,20ZM8.03,20,32,2.245,55.97,20Z"/></g></svg>
